<svg width="1440" height="320" xmlns="http://www.w3.org/2000/svg">

 <g>
  <title>Layer 1</title>
  <path id="svg_1" d="m0,160l34.3,10.7c34.3,10.3 102.7,32.3 171.7,32c68.3,0.3 137,-21.7 205,-48c69,-26.7 138,-58.7 206,-42.7c68.7,16 137,80 206,101.3c68.4,21.7 137,-0.3 206,-16c68.1,-16.3 137,-26.3 205,-26.6c68.9,0.3 137,10.3 172,16l34,5.3l0,128l-34.3,0c-34.3,0 -102.7,0 -171.7,0c-68.3,0 -137,0 -205,0c-69,0 -138,0 -206,0c-68.7,0 -137,0 -206,0c-68.4,0 -137,0 -206,0c-68.1,0 -137,0 -205,0c-68.9,0 -137,0 -172,0l-34,0l0,-160z" fill="#000000"/>
 </g>
</svg>